<?xml version="1.0" encoding="UTF-8" standalone="no"?>
<!DOCTYPE svg PUBLIC "-//W3C//DTD SVG 1.1//EN" "http://www.w3.org/Graphics/SVG/1.1/DTD/svg11.dtd">
<!-- Created with Vectornator (http://vectornator.io/) -->
<svg height="100%" stroke-miterlimit="10" style="fill-rule:nonzero;clip-rule:evenodd;stroke-linecap:round;stroke-linejoin:round;" version="1.1" viewBox="0 0 30 30" width="100%" xml:space="preserve" xmlns="http://www.w3.org/2000/svg" xmlns:xlink="http://www.w3.org/1999/xlink">
<defs/>
<g id="Untitled">
<path d="M23.0998 18.0686C23.1189 17.886 23.0881 17.6981 23.0041 17.5256C22.8371 17.1826 22.4877 16.9651 22.1057 16.9651L18.0373 16.9651L18.0374 3.96505C18.0374 2.86005 17.1424 1.96505 16.0374 1.96504L14.0374 1.96503C12.9324 1.96503 12.0374 2.86002 12.0374 3.96502L12.0373 16.965L7.96503 16.965C7.58203 16.965 7.23359 17.1825 7.06659 17.5255C6.99759 17.6655 6.96503 17.816 6.96502 17.965C6.96502 18.184 7.03501 18.4012 7.17401 18.5802L14.2462 27.6506C14.4362 27.8936 14.7243 28.0353 15.0333 28.0354C15.3423 28.0354 15.6334 27.8936 15.8224 27.6506L22.8947 18.5803C23.0122 18.4293 23.0807 18.2512 23.0998 18.0686Z" fill="#000000" fill-rule="nonzero" opacity="1" stroke="none"/>
</g>
</svg>
