<?xml version="1.0" encoding="UTF-8" standalone="no"?>
<!DOCTYPE svg PUBLIC "-//W3C//DTD SVG 1.1//EN" "http://www.w3.org/Graphics/SVG/1.1/DTD/svg11.dtd">
<!-- Created with Vectornator (http://vectornator.io/) -->
<svg height="100%" stroke-miterlimit="10" style="fill-rule:nonzero;clip-rule:evenodd;stroke-linecap:round;stroke-linejoin:round;" version="1.1" viewBox="0 0 24 24" width="100%" xml:space="preserve" xmlns="http://www.w3.org/2000/svg" xmlns:xlink="http://www.w3.org/1999/xlink">
<defs/>
<g id="Untitled">
<path d="M3.98438 2.98633C3.43286 2.99495 2.99245 3.44847 3 4L3 20C3.00006 20.5523 3.44774 20.9999 4 21L20 21C20.3606 21.0051 20.6961 20.8156 20.8779 20.5041C21.0597 20.1926 21.0597 19.8074 20.8779 19.4959C20.6961 19.1844 20.3606 18.9949 20 19L5 19L5 4C5.0037 3.7297 4.89782 3.46941 4.70649 3.27845C4.51516 3.08748 4.25467 2.98211 3.98438 2.98633ZM8.05664 3C7.46764 3 6.99869 3.50384 7.05469 4.08984C7.44869 8.19684 9.907 14 13 14C16.093 14 18.5504 8.19684 18.9434 4.08984C19.0004 3.50384 18.5324 3 17.9434 3L8.05664 3ZM8 15C7.448 15 7 15.448 7 16C7 16.552 7.448 17 8 17C8.552 17 9 16.552 9 16C9 15.448 8.552 15 8 15ZM12 15C11.448 15 11 15.448 11 16C11 16.552 11.448 17 12 17C12.552 17 13 16.552 13 16C13 15.448 12.552 15 12 15ZM16 15C15.448 15 15 15.448 15 16C15 16.552 15.448 17 16 17C16.552 17 17 16.552 17 16C17 15.448 16.552 15 16 15ZM20 15C19.448 15 19 15.448 19 16C19 16.552 19.448 17 20 17C20.552 17 21 16.552 21 16C21 15.448 20.552 15 20 15Z" fill="#f7fef7" fill-rule="nonzero" opacity="1" stroke="none"/>
</g>
</svg>
