<?xml version="1.0" standalone="no"?>
<!DOCTYPE svg PUBLIC "-//W3C//DTD SVG 20010904//EN"
 "http://www.w3.org/TR/2001/REC-SVG-20010904/DTD/svg10.dtd">
<svg version="1.0" xmlns="http://www.w3.org/2000/svg"
 width="480.000000pt" height="480.000000pt" viewBox="0 0 480.000000 480.000000"
 preserveAspectRatio="xMidYMid meet">
<metadata>
Created by potrace 1.14, written by Peter Selinger 2001-2017
</metadata>
<g transform="translate(0.000000,480.000000) scale(0.100000,-0.100000)"
fill="#000000" stroke="none">
<path d="M782 4381 c-92 -31 -141 -96 -168 -220 -11 -51 -13 -126 -9 -336 2
-148 6 -286 9 -305 2 -19 7 -66 11 -105 3 -38 7 -81 9 -95 18 -135 18 -134 55
-300 21 -89 107 -284 181 -406 l30 -52 -23 -28 c-46 -56 -167 -244 -216 -336
-55 -103 -123 -260 -141 -326 -6 -24 -13 -49 -16 -57 -4 -9 6 -16 28 -20 69
-16 246 -146 278 -205 7 -13 2 -16 -28 -18 -20 -2 -65 -10 -100 -18 -35 -9
-68 -17 -75 -18 -15 -3 -90 -27 -99 -33 -11 -6 14 -51 61 -111 67 -85 191
-164 279 -178 23 -4 42 -10 42 -15 0 -13 -71 -55 -122 -72 -24 -9 -73 -19
-107 -23 l-62 -7 33 -34 c139 -145 607 -347 1188 -513 80 -23 161 -52 180 -65
104 -71 198 -89 443 -83 199 5 251 16 349 77 25 16 88 41 140 56 51 14 104 30
118 35 14 5 72 23 130 41 111 33 391 131 450 156 19 8 44 19 55 23 212 86 378
179 464 257 51 48 54 52 31 53 -81 3 -172 30 -244 73 l-38 24 48 13 c132 35
274 141 332 248 l23 42 -26 10 c-66 25 -232 62 -282 63 -7 0 -13 2 -13 4 0 4
68 80 85 95 67 58 158 113 204 123 17 3 31 8 31 10 0 5 -51 161 -59 180 -68
161 -202 391 -326 560 -13 19 -11 26 21 80 145 240 210 454 239 785 4 41 9 91
11 110 10 79 12 578 3 630 -22 117 -73 192 -154 226 -54 23 -194 27 -273 9
-276 -65 -554 -331 -799 -766 l-66 -117 -63 24 c-139 52 -255 69 -459 68 -150
-1 -246 -16 -389 -61 -44 -14 -83 -25 -85 -25 -2 0 -23 36 -46 79 -196 369
-475 669 -706 762 -132 52 -270 64 -367 32z"/>
</g>
</svg>
